<svg xmlnsDc="http://purl.org/dc/elements/1.1/" xmlnsCc="http://creativecommons.org/ns#" xmlnsRdf="http://www.w3.org/1999/02/22-rdf-syntax-ns#" xmlnsSvg="http://www.w3.org/2000/svg" xmlns="http://www.w3.org/2000/svg" viewBox="0 0 704 704" fill="none"><metadata><rdfRDF><ccWork><dcFormat>image/svg+xml</dcFormat><dcType rdfResource="http://purl.org/dc/dcmitype/StillImage"/><dcTitle>Open Peeps</dcTitle><dcCreator><ccAgent><dcTitle>Pablo Stanley</dcTitle></ccAgent></dcCreator><dcSource>https://www.openpeeps.com/</dcSource><ccLicense rdfResource="https://creativecommons.org/publicdomain/zero/1.0/"/></ccWork><ccLicense rdfAbout="https://creativecommons.org/publicdomain/zero/1.0/"><ccPermits rdfResource="https://creativecommons.org/ns#Reproduction"/><ccPermits rdfResource="https://creativecommons.org/ns#Distribution"/><ccPermits rdfResource="https://creativecommons.org/ns#DerivativeWorks"/></ccLicense></rdfRDF></metadata><mask id="avatarsRadiusMask"><rect width="704" height="704" rx="0" ry="0" x="0" y="0" fill="#fff"/></mask><g mask="url(#avatarsRadiusMask)"><g fill-rule="evenodd" clip-rule="evenodd"><path d="M705.281 1074.02a2351.117 2351.117 0 0 1-11.084-68.46c-1.594-10.86-3.149-21.73-4.547-32.618-.979-7.628-2.47-16.351 2.72-22 7.303-7.952 13.937-14.758 14.831-26.149.841-10.717-2.783-22.4-5.049-32.803-4.752-21.816-10.668-43.362-17.205-64.704-6.641-21.683-13.923-43.162-21.31-64.6-6.906-20.044-13.545-40.269-22.54-59.5-17.071-36.495-45.951-63.522-81.643-81.568-8.877-4.488-26.983-20.51-36.257-24.097-8.526-3.298-8.495 6.333-16.886 2.705-6.708-2.9-12.954-6.767-16.71-13.244-4.078-7.033-14.305-16.869-15.862-25.055-3.299-17.351.275-32.12-12.109-45.179-10.994-11.597-25.771-19.542-41.061-23.807-33.636-9.381-78.494-2.822-98.788 28.433-9.693 14.926-13.08 32.968-26.159 45.149-11.421 10.636-8.865 17.908-23.657 23.39-.838.311-23.546-4.56-24.384-4.248-16.182-3.463-31.648 6.23-46.494 11.856-22.133 8.384-43.205 19.298-63.002 32.269-39.92 26.155-74.11 60.118-102.296 98.551-28.42 38.75-50.471 82.182-66.172 127.576a492.842 492.842 0 0 0-10.26 33.455c-1.69 6.307-3.497 12.849-1.438 19.305 1.684 5.283 5.43 9.216 9.829 12.385 5.963 4.297 17.924 7.09 17.69 15.732-.177 6.57-2.406 13.485-3.494 19.978-1.295 7.732-2.36 15.51-3.423 23.276-4.84 35.352-8.607 70.902-10.273 106.552-1.64 35.1-3.001 70.92-.566 106.01.16 2.31.85 4.44 1.964 6.23-1.04.4-1.12 2.34.174 2.61.906.19 1.81.39 2.716.58 1.882 1.42 4.229 2.29 6.93 2.38 1.83.06 3.66.14 5.49.23 19.3 4.04 38.599 7.85 58.152 10.74 23.768 3.5 47.606 6.36 71.518 8.69 49.135 4.78 97.883 3.19 147.083.62 49.124-2.58 98.219-3.18 147.394-1.9 49.218 1.28 98.418 3.42 147.647 4.3 54.999.98 109.914-.52 164.754-4.9 7.519-.59 12.171-6.58 10.688-14.04-8.885-44.75-18.954-89.19-26.911-134.13Z" fill="rgba(208, 139, 91, 1)"/><path d="m201.087 597.521 1.074-.414c14.518-5.671 29.628-14.822 45.421-11.442.558-.208 10.834 1.887 17.872 3.215l-6.68 6.973-11.79 2.268c40.673 67.128 88.778 100.692 144.314 100.692 55.537 0 97.678-33.564 126.425-100.692l3.923-1.085c.484.112 1 .271 1.552.485 9.274 3.587 27.379 19.608 36.256 24.096 35.692 18.047 64.572 45.073 81.643 81.569 8.695 18.59 15.189 38.108 21.85 57.494l.69 2.005c7.387 21.438 14.669 42.918 21.31 64.601 6.253 20.414 11.938 41.015 16.579 61.86l.626 2.844c2.266 10.403 5.89 22.085 5.049 32.803-.318 4.058-1.365 7.534-2.912 10.687l-80.446 28.947 38.326 261.393c-35.107 1.51-70.246 1.9-105.419 1.27-49.229-.88-98.429-3.02-147.647-4.3-47.685-1.24-95.294-.71-142.928 1.67l-12.097.62c-46.613 2.33-92.858 3.52-139.452-1.01l-3.175-.31v-38.24l16.367-212.911-82.945-15.613-81.422-39.546c-2.46-2.459-4.434-5.329-5.532-8.773-1.907-5.98-.498-12.033 1.064-17.905l.375-1.4a492.842 492.842 0 0 1 10.26-33.455c15.7-45.394 37.751-88.827 66.171-127.576 28.187-38.433 62.377-72.396 102.296-98.552 19.797-12.97 40.869-23.884 63.002-32.268Z" fill="rgba(253, 234, 107, 1)"/><path d="M232.235 584.564c5.086-.221 10.272.602 15.346 1.101.442.043.61.725.112.829-9.08 1.897-18.062 4.492-26.98 7.128l-3.819 1.13c-10.057 2.975-19.819 6.044-29.555 10.012-19.404 7.908-37.833 18.582-54.794 30.845C67.233 682.83 19.963 754.324-9.867 828.345a525.982 525.982 0 0 0-20.525 61.653 554.65 554.65 0 0 0-3.83 15.347c-.354 1.505-1.897 5.359-1.05 6.899.747 1.361 3.655 2.202 5.006 2.91l4.561 2.365c8.897 4.585 23.717 12.123 25.203 12.857l2.318 1.141c37.91 18.585 78.418 34.345 121.079 35.436l.334-3.643c1.902-20.141 4.398-40.389 9.846-59.911.293-1.049 1.628-.695 1.75.237 3.035 23.111 2.065 46.402 1.006 69.62-1.875 41.124-4.365 82.224-6.578 123.324-1.108 20.57-2.54 41.11-3.833 61.67-1.295 20.59-1.714 41.68-4.671 62.1-.659 4.55-5.991 7.03-10.029 6.55-4.468-.53-7.905-4.47-7.926-8.98-.054-11.9 1.441-23.94 2.272-35.8.789-11.28 1.636-22.55 2.504-33.82 3.172-41.13 6.821-82.21 10.196-123.33 1.196-14.58 2.488-29.147 3.818-43.715-45.193-1.457-87.414-18.196-127.692-37.754-.583 13.237-1.99 26.45-3.354 39.632-3.805 36.787-7.16 73.557-9.67 110.457-1.269 18.64-2.192 37.3-2.996 55.96a1708.912 1708.912 0 0 0-1.187 36.7l-.137 7.01c-.113 4.44-.564 8.55-4.3 11.78-3.796 3.29-8.922 3.46-12.678 0-5.028-4.63-4.139-10.93-3.99-17.15a1718.048 1718.048 0 0 1 1.775-47.18c1.886-36.64 5.655-73.13 10.58-109.47l1.922-14.03c3.59-26.08 7.532-52.754 15.558-77.877a1428.758 1428.758 0 0 1-9.345-4.691c-5.506-2.788-11.199-5.404-16.55-8.481-4.247-2.441-7.909-5.789-9.09-10.73-1.319-5.505.697-11.526 2.036-16.896l.116-.472a502.049 502.049 0 0 1 4.22-16.153c6.05-21.739 13.53-43.054 22.285-63.849 17.53-41.632 40.157-81.183 67.796-116.944 24.88-32.19 54.269-61.382 88.715-83.276 16.84-10.704 34.786-19.493 53.765-25.707 8.871-2.904 18.523-5.43 27.811-6.47 5.01-.56 10.027-.881 15.061-1.1Zm90.114-65.97c6.044-6.49 18.052.226 15.15 8.82-6.826 20.219-17.696 38.662-34.66 51.948-15.946 12.49-34.961 20.601-55.439 18.87a1.217 1.217 0 0 1-.416-.111l1.765 2.394c13.854 18.741 28.47 37.223 46.087 52.541 35.893 31.211 84.763 48.045 131.953 36.07 37.128-9.421 69.838-38.78 79.458-76.196-1.379.618-3.018.829-4.817.438-7.697-1.671-15.317-9.766-20.281-15.57-5.37-6.279-9.564-13.059-12.638-20.723-5.626-14.026-7.43-32.085.252-45.672.948-1.675 3.134-.736 3.32.899l.292 2.552c1.481 12.734 3.326 25.051 9.33 36.659 2.938 5.68 6.46 11.224 10.747 15.981 2.294 2.545 4.781 4.977 7.466 7.111 2.616 2.079 5.783 3.583 8.128 5.968l.43.458.012-.082c.593-5.041 4.128-7.262 7.587-7.123 3.347.135 7.279 1.608 8.802 2.314l.144.068c23.352 11.21 44.859 25.821 65.099 42.031 41.856 33.524 73.217 77.349 88.412 128.957 7.458 25.329 11.737 51.428 16.254 77.405l2.782 15.917c4.216 23.981 8.926 48.435 18.444 70.743 2.462 5.771.564 11.183-5.473 13.452-7.538 2.834-15.104 5.578-22.682 8.288 3.721 15.963 5.99 32.479 8.778 48.519 5.926 34.1 13.187 67.98 19.413 102.04 3.183 17.41 6.055 34.88 9.235 52.29 1.531 8.39 3.129 16.76 4.683 25.14.837 4.52 1.596 9.06 2.395 13.58l.139.76c.458 2.38 1.033 4.85.376 7.24-.749 2.73-2.876 4.65-4.775 6.61-1.563 1.61-3.822 1.62-5.737.74l-.63-.29c-3.42-1.6-6.1-3.2-7.313-7.06-.768-2.44-1.045-5.19-1.547-7.71-.963-4.82-1.876-9.66-2.738-14.5a3535.65 3535.65 0 0 1-5.052-29.1l-1.536-9.09c-5.27-31.33-10.275-62.85-12.805-94.51-1.123-14.05-2.312-28.08-3.513-42.12l-.901-10.524c-1.14-13.325-2.533-26.987-2.73-40.492l-4.532 1.609-22.11 7.816c-5.482 1.937-12.462 5.907-18.362 5.185-2.888-.354-5.09-1.263-6.79-2.915 2.036 28.733 4.792 57.421 8.465 85.951 3.342 25.97 7.047 51.9 11.423 77.71 2.167 12.78 4.394 25.55 6.813 38.29 1.209 6.37 2.457 12.73 3.743 19.08.641 3.17 1.404 6.35 1.904 9.54.572 3.66-.436 5.91-2.481 8.93-1.679 2.47-5.038 3.74-7.761 2.03-3.606-2.26-5.487-4.22-6.548-8.34-.964-3.75-1.55-7.65-2.296-11.44-1.377-7-2.708-14.01-3.993-21.02-2.687-14.68-5.164-29.38-7.376-44.14-7.795-51.97-12.741-104.37-15.239-156.859-1.233-25.897-1.614-51.817-1.395-77.741.112-13.288.546-26.614 1.486-39.869.952-13.417 2.932-26.566 4.7-39.854.062-.468.722-.495.75 0 .837 14.898 2.149 29.779 2.792 44.716.614 14.253.883 28.528 1.371 42.786.641 18.742 1.53 37.495 2.707 56.235 2.131-2.331 5.343-3.675 8.557-3.15 4.656-.977 9.668-3.42 14.107-4.903l16.734-5.59c8.797-2.938 17.594-5.856 26.422-8.686-7.893-26.553-13.3-53.502-17.917-80.844l-2.059-12.297c-4.075-24.204-8.47-48.419-15.852-71.858-7.761-24.642-19.375-47.552-34.782-68.299-15.187-20.447-33.664-38.451-52.688-55.291-16.287-14.416-33.71-27.432-50.322-41.452.174.929.211 1.952.058 3.076-3.532 25.85-17.017 49.923-35.81 67.828-37.755 35.971-93.642 43.434-141.964 26.566-46.743-16.316-88.07-54.958-102.671-102.775-.25-.818.846-1.143 1.286-.542.81 1.11 1.624 2.22 2.439 3.33-.055-.441.174-.921.718-1.131 17.036-6.578 33.765-15.907 46.535-29.104 6.224-6.433 11.656-13.721 15.944-21.581 2.054-3.765 3.899-7.664 5.371-11.693l.374-1.042c1.784-5.047 3.275-10.193 6.999-14.192Z" fill="#000"/></g><g transform="matrix(.99789 0 0 1 156 62)"><g fill-rule="evenodd" clip-rule="evenodd"><path d="M418.424 337.603c-6.271-45.243-20.614-89.171-22.673-135.093l-3.674-58.956c-.465-12.274-16.409-16.415-22.499-5.541-13.843-15.352-38.631-13.091-57.542-12.625-111.328 3.945-217.122 79.215-255.338 184.164-.919 2.502-.64 5.165.398 7.548-17.813 59.4 45.182 97.649 88.146 124.133 17.429 18.418 37.916 33.72 61.049 44.2 26.611 12.519 56.233 19.499 85.634 20.167 6.454.148 10.331-5.07 10.797-10.471 9.38-2.183 25.431.337 30.391-9.275 56.567-24.569 93.424-86.841 85.311-148.251Z" fill="rgba(208, 139, 91, 1)"/><path d="M391.957 177.155c-.16-1.467 1.958-1.512 2.394-.324 3.585 9.767 7.302 19.467 10.142 29.481 2.738 9.651 4.71 19.521 6.707 29.349a856.394 856.394 0 0 1 8.516 49.223c5.035-3.932 11.62-4.29 17.821-1.23 2.91 1.435 4.024 5.23 3.326 8.174a66.485 66.485 0 0 1-2.067 7.014 18.496 18.496 0 0 1 4.334 5.675c2.855 5.8 1.935 11.888-.626 17.421.195.33.388.662.57 1.014 3.707 7.199 1.724 13.646-.985 20.67-2.028 5.256-.896 11.174-5.271 15.142-1.521 4.886-3.803 9.43-7.125 13.535-.754 1.381-1.884 2.491-3.225 3.308-.337 7.711-1.151 15.396-2.682 23.014-5.945 29.579-24.813 55.934-48.17 74.522-22.856 18.19-49.699 29.059-78.663 32.572-14.064 1.707-28.149 1.169-42.098-1.268l-1.738-.31c-12.871-2.334-28.447-6.199-37.347-15.908-4.68-5.106-1.944-16.344 6.331-15.283 4.384.561 8.2 1.264 12.328 2.882 3.219 1.262 6.444 2.478 9.749 3.508 6.33 1.971 12.877 3.508 19.449 4.358 13.694 1.769 27.924 1.301 41.46-1.369 24.614-4.856 48.527-16.057 67.206-32.921 21.713-19.603 34.441-44.974 36.314-74.236 2.086-32.59-1.677-65.962-4.801-98.383a995.433 995.433 0 0 0-6.172-50.456c-2.427-16.376-3.882-32.729-5.677-49.174ZM199.799 71.92l1.052-.162c41.8-6.36 85.78-5.91 125.07 11.34 7.53 3.31 14.9 7.3 21.84 11.93 4.971-.52 9.971-.94 14.881-1.01 6.179-.08 12.209 3.13 12.969 9.379 5.79.72 11.121 2.85 14.531 7.111a13.752 13.752 0 0 1 2.67 5.579 45.746 45.746 0 0 1 10.359 3.83c4.02 2.07 6.34 7.83 4.92 12.091-.328.967-.7 1.91-1.118 2.832l-.322.687.19.26c3.21 5.16.98 11.93-3.94 15.01-3.69 2.31-7.81 4.15-12.05 5.04.35 1.7.67 3.41.93 5.14.1.701-.799 1.201-1.2.51 0 0 1.52 4.73 3.811 9.941.899 2.049-1.981 3.869-3.08 1.799-2.92-5.52-4.731-11.18-7.381-16.87-2.449-.16-4.89-.72-7.24-1.79-1.54-.7-2.709-1.88-3.549-3.29-.051.06-.08.13-.131.2-7.89 10.15-23.31 13.71-35.23 16.92-12.799 3.451-25.9 5.58-39.049 7.15-22.961 2.73-46.101 3.24-69.17 4.301-1.528.069-3.053.146-4.579.22-9.37 8.22-21.439 13.328-33.819 14.881-6.273.786-13.693.586-20.727-1.016a21.015 21.015 0 0 1-9.275 5.515c-.632 13.099-7.936 25.501-18.978 32.73l.196.779c2.744 11.185 2.709 23.412-7.128 31.186a23.946 23.946 0 0 1-4.318 2.702l.336.773c5.081 11.874 6.704 24.99-2.847 34.843-3.872 3.994-10.671 3.048-13.575-1.536l-.142-.232c-.161-.273-.335-.535-.502-.803-.259.53-.655.977-1.243 1.227-3.63 1.561-5.08.41-8.39-1.2-3.06-1.5-6.29-2.62-9.589-3.489a55.409 55.409 0 0 0-8.07-1.491c-17.06 6.52-28.08 26.52-25.46 45.29 1.42 10.22 7.03 20.34 16.81 24.58 4.28 1.86 9.31 2.64 13.94 2.01 6.27-.85 11.089-4.799 17.579-2.54 2.56.89 4.161 2.901 4.3 5.651.231 4.319-1.3 7.559-3.88 9.959 4.55 3.8 8.22 9.08 12.17 13.291 4.941 5.269 9.95 10.539 15.29 15.399 5.04 4.61 10.401 8.89 16.08 12.691l.597.393c7.116 4.634 16.083 8.749 16.423 18.437.11 2.92-1.66 5.599-4.06 7.089-8.969 5.56-18.73-1.74-25.76-7.089a158.327 158.327 0 0 1-8.23-6.691c-1.77.14-3.7-.149-5.71-1.04-1.29-.56-2.55-1.22-3.79-1.92-4.03 1.01-7.83.12-10.96-1.99-4.51 1.11-9.29 1.24-13.35.35-3.709-.82-7.02-2.57-9.75-4.92-5.7 1.82-12.03 1.48-17.65-1.97-3.37-2.069-6-5.02-7.43-8.47-.728-1.139-1.194-2.469-1.229-3.934v-.556c-4.9.11-9.81-1.57-13.6-5.449-3.48-3.561-5.18-8-5.37-12.511a24.628 24.628 0 0 1-12.87-8.7c-5.68-7.34-6.44-16.41-3.52-24.51-.19-.43-.36-.87-.51-1.31-4.53-6.39-7.52-14.1-7.28-21.83.03-1.2.19-2.379.43-3.549-4.46-2.371-7.74-6.531-8.09-11.821-.27-4.15 1.22-8.21 3.91-11.28-1.31-3.13-1.89-6.53-1.49-9.93.41-3.49 1.64-6.52 3.44-9.049-.04-.92.01-1.851.16-2.801-.18-.93-.33-1.89-.41-2.869-.85-10.721 6.55-20.101 15.56-25.051 2.37-1.3 4.93-2.36 7.49-3.26 1.86-.66 4.66-.88 6.3-2.09-.07-.05.61-.929.73-1.4.13-.58.27-1.15.34-1.74.27-2.48.07-5.03.02-7.52-.22-11.3.13-22.65 1.32-33.89 2.21-20.84 7.66-41.23 18.28-59.44 8.91-15.26 21.11-28.15 35.099-38.84 27.866-21.282 62.64-32.855 97.018-38.197ZM70.66 331.088c-3.627-8.718 13.45-8.804 17.965-8.39l.133.013c10.163 1.011 26.052 5.899 30.21 16.154 1.721 4.245-3.374 8.846-7.451 7.45-3.991-1.366-6.229-4.3-9.432-6.867a41.102 41.102 0 0 0-2.608-1.91c.47 1.496 1.222 2.878 2.265 3.91l.246.232c4.918 4.418-3.877 11.361-7.141 5.51-1.738-3.113-2.434-6.529-1.892-10.064.161-1.043.441-1.997.848-2.907-.324-.162-.643-.338-.971-.494l-.585-.272c-3.915-1.776-20.617-8.749-20.482-2.514.015.69-.88.691-1.105.149Z" fill="#000"/></g></g><g transform="translate(315 248)"><path fill-rule="evenodd" clip-rule="evenodd" d="M171.042 240.159c-7.367 2.133-15.274 2.324-22.783.121-6.811-1.999-13.804-6.398-18.817-12.218-4.453-5.171-7.337-11.454-7.223-18.161a2.966 2.966 0 0 1 .708-1.902 3.312 3.312 0 0 1 1.766-1.06 3.234 3.234 0 0 1 2.064.18 2.733 2.733 0 0 1 1.361 1.338 174.4 174.4 0 0 0 2.308 2.978c6.194 7.649 12.192 13.364 21.506 15.414 5.053 1.113 10.1.62 14.731-1.078 4.957-1.817 9.439-5.011 12.95-9.1 1.587-1.847 3.46-2.601 5.292-2.614 2.077-.014 4.129.95 5.674 2.492 1.52 1.516 2.537 3.575 2.63 5.73.081 1.891-.536 3.866-2.177 5.628-5.406 5.804-12.411 10.057-19.99 12.252Zm-.228-95.792c7.552 4.59 19.058 15.293 10.934 26.673-9.562 10.033-23.33-1.471-30.114-6.674-6.291-4.032-13.359 6.338-7.522 11.047 49.024 36.295 68.919-29.846 30.522-36.443-4.228-.727-5.798 3.977-3.82 5.397Zm-70.639-20.197c-2.427-1.552-5.282-2.085-8.446-.645-2.473 1.124-6.81 4.873-9.828 9.8-2.065 3.372-3.529 7.326-3.224 11.446.07.957-.283 1.662-.84 2.184-.44.412-1.077.714-1.824.809a4.748 4.748 0 0 1-1.922-.172c-1.098-.343-1.68-1.056-1.898-1.637-2.113-5.612-1.203-11.875 1.166-17.525 3.196-7.625 9-14.012 12.803-16.072 6.508-3.525 14.185-3.687 20.702-.096 5.547 3.057 9.016 7.991 12.466 13.021.733 1.07 1.461 2.131 2.214 3.174 1.507 2.089 1.657 4.162 1.073 5.939-.646 1.968-2.296 3.629-4.358 4.499-1.906.804-4.118.917-6.076.091-1.654-.698-3.171-2.057-4.132-4.364-1.617-3.886-4.312-8.172-7.876-10.452Zm123.266 8.644c-1.662.866-2.963 1.128-4.807.575a6.833 6.833 0 0 1-2.816-1.682c-.782-.782-1.346-1.754-1.566-2.833-.539-2.663-1.996-5.155-4.071-6.779-1.775-1.389-4.014-2.125-6.498-1.71-2.681.448-5.234 2.167-6.993 4.194-.588.678-1.049 1.448-1.512 2.213-.867 1.431-1.709 2.761-2.904 3.811-.453.4-1.136.677-1.797.677a2.7 2.7 0 0 1-.801-.125c-2.668-2.677-3.181-4.709-3.095-6.724.09-2.112.923-4.252 2.269-6.247 3.157-4.682 9.153-8.521 13.198-9.391 5.541-1.19 11.043.239 15.455 3.333 4.539 3.184 7.902 8.128 8.951 13.699.252 1.342.145 2.79-.366 4.046-.499 1.227-1.369 2.278-2.647 2.943ZM112.394 74.253c-3.325 3.24-7.26 3.74-11.241 4.187-2.213.25-3.978.452-5.716.844-4.776 1.079-9.498 2.702-13.805 5.041-4.503 2.445-9.41 5.393-12.94 9.17-.84.9-1.63 1.842-2.423 2.787a74.07 74.07 0 0 1-2.152 2.492c-.843.92-1.643 1.882-2.438 2.843-.492.81-.59 1.01-.689 1.217-.149.312-.322.661-.52 1.035a20.29 20.29 0 0 1-.922 1.583c-.554.931-.851 1.187-1.108 1.301-.426.19-.83.284-1.222.233-.367-.047-.714-.224-1.056-.513-1.707-1.442-2.21-3.809-2.158-6.322.078-3.812 1.484-8.034 2.78-10.629 3.015-6.03 7.195-12.298 12.222-16.798 5.736-5.137 12.012-9.026 19.22-11.706 4.479-1.666 9.665-3.195 14.545-3.002 3.513.14 6.866 1.184 9.636 3.791 1.7 1.6 2.516 3.878 2.516 6.153 0 2.32-.847 4.655-2.529 6.293Zm117.809 29.665a1.825 1.825 0 0 1-.83.728 1.936 1.936 0 0 1-2.073-.346 1.846 1.846 0 0 1-.553-.955c-2.207-9.696-6.494-16.91-15.643-21.561-4.5-2.289-9.675-3.743-14.574-4.902-1.424-.337-2.928-.555-4.443-.776-4.748-.694-9.53-1.487-12.625-5.325-1.865-2.312-2.648-5.268-2.206-7.972.417-2.546 1.905-4.88 4.609-6.28 6.732-3.48 15.099-.064 21.898 2.845.504.216.999.428 1.483.633 6.649 2.806 12.713 6.51 17.698 11.808 3.955 4.203 7.619 10.416 9.095 16.808 1.228 5.317.939 10.746-1.836 15.295Z" fill="#000"/></g><g transform="translate(279 400)"/><g transform="translate(179 343)"/><g transform="translate(203 303)"><path fill-rule="evenodd" clip-rule="evenodd" d="M389.09 63.282c-9.534 64.489-76.088 71.621-87.913 7.6 1.898-.832 3.263-2.468 2.978-5.644-.067-13.952 4.264-28.698 16.85-36.457 13.006-8.006 28.227-8.8 43.278-8.598 28.722-.684 28.118 23.323 24.807 43.1m-98.332-28.048c-9.014-.38-20.418-.062-28.493 5.43-2.22-5.978-7.988-12.36-13.816-15.774 21.662.634 43.96-1.498 65.784-3.153-5.224 3.561-10.084 8.911-13.243 15.096-2.931-1.563-7.129-1.417-10.232-1.599M251.026 70.12c-24.995 86.036-87.386 48.536-94.188 37.51-12.269-18.246-14.577-62.6-3.89-74.459 15.298-10.724 36.955-7.964 55.027-8.227 33.201.448 56.781 10.38 43.051 45.176m167.577-39.57c-6.791-.889-14.048-1.068-20.362 1.922-1.944-8.263-8.047-15.17-14.938-18.21-.834-1.047-.709-1.609-3.558-1.452-17.495-5.258-37.072-2.476-53.884 2.916-26.552 2.236-54.409 4-81.184 7.08C219.595 11.541 143.902 9.89 139.198 37.653c-5.917-.885-15.994-5.542-20.966.775-36.471-6.183-74.156 2.41-110.785 6.237-9.22 1.698-13.97 19.996-3.503 19.746 5.884-1.597-.181-11.394 7.742-12.13 35.34-3.86 69.909-9.337 105.612-9.978-1.242 6.165 23.614 6.566 23.981 2.966.053.027.109.045.163.07-6.142 22.89-.598 55.831 10.502 70.025 15.552 18.586 54.597 23.918 71.91 11.96 22.333-11.037 45.566-66.439 39.04-84.845 11.844-3.754 23.553-2.627 35.845-.715-2.814 7.95-7.672 27.517-.683 29.214-1.283 38.85 34.074 63.091 66.668 47.154 28.211-13.243 38.077-55.16 34.625-80.604 3.512 6.786 33-.602 19.254-6.98" fill="#000"/></g></g></svg>